<mxfile host="app.diagrams.net" agent="Mozilla/5.0 (Windows NT 10.0; Win64; x64) AppleWebKit/537.36 (KHTML, like Gecko) Chrome/131.0.0.0 Safari/537.36 Edg/131.0.0.0" version="25.0.3">
  <diagram id="C5RBs43oDa-KdzZeNtuy" name="Page-1">
    <mxGraphModel dx="1042" dy="565" grid="1" gridSize="10" guides="1" tooltips="1" connect="1" arrows="1" fold="1" page="1" pageScale="1" pageWidth="827" pageHeight="1169" math="0" shadow="0">
      <root>
        <mxCell id="WIyWlLk6GJQsqaUBKTNV-0" />
        <mxCell id="WIyWlLk6GJQsqaUBKTNV-1" parent="WIyWlLk6GJQsqaUBKTNV-0" />
        <mxCell id="1RKFt2NXL9XRRq9aAyVv-2" value="" style="edgeStyle=orthogonalEdgeStyle;rounded=0;orthogonalLoop=1;jettySize=auto;html=1;" edge="1" parent="WIyWlLk6GJQsqaUBKTNV-1" source="1RKFt2NXL9XRRq9aAyVv-0" target="1RKFt2NXL9XRRq9aAyVv-1">
          <mxGeometry relative="1" as="geometry" />
        </mxCell>
        <mxCell id="1RKFt2NXL9XRRq9aAyVv-0" value="START" style="ellipse;whiteSpace=wrap;html=1;" vertex="1" parent="WIyWlLk6GJQsqaUBKTNV-1">
          <mxGeometry x="340" y="40" width="120" height="80" as="geometry" />
        </mxCell>
        <mxCell id="1RKFt2NXL9XRRq9aAyVv-4" value="" style="edgeStyle=orthogonalEdgeStyle;rounded=0;orthogonalLoop=1;jettySize=auto;html=1;" edge="1" parent="WIyWlLk6GJQsqaUBKTNV-1" source="1RKFt2NXL9XRRq9aAyVv-1" target="1RKFt2NXL9XRRq9aAyVv-3">
          <mxGeometry relative="1" as="geometry" />
        </mxCell>
        <mxCell id="1RKFt2NXL9XRRq9aAyVv-1" value="iNPUT NUMBER" style="shape=parallelogram;perimeter=parallelogramPerimeter;whiteSpace=wrap;html=1;fixedSize=1;" vertex="1" parent="WIyWlLk6GJQsqaUBKTNV-1">
          <mxGeometry x="340" y="210" width="120" height="60" as="geometry" />
        </mxCell>
        <mxCell id="1RKFt2NXL9XRRq9aAyVv-6" value="" style="edgeStyle=orthogonalEdgeStyle;rounded=0;orthogonalLoop=1;jettySize=auto;html=1;" edge="1" parent="WIyWlLk6GJQsqaUBKTNV-1" source="1RKFt2NXL9XRRq9aAyVv-3" target="1RKFt2NXL9XRRq9aAyVv-5">
          <mxGeometry relative="1" as="geometry" />
        </mxCell>
        <mxCell id="1RKFt2NXL9XRRq9aAyVv-3" value="num % 2== 0?" style="rhombus;whiteSpace=wrap;html=1;" vertex="1" parent="WIyWlLk6GJQsqaUBKTNV-1">
          <mxGeometry x="360" y="340" width="80" height="80" as="geometry" />
        </mxCell>
        <mxCell id="1RKFt2NXL9XRRq9aAyVv-10" style="edgeStyle=orthogonalEdgeStyle;rounded=0;orthogonalLoop=1;jettySize=auto;html=1;entryX=0.5;entryY=0;entryDx=0;entryDy=0;" edge="1" parent="WIyWlLk6GJQsqaUBKTNV-1" source="1RKFt2NXL9XRRq9aAyVv-5" target="1RKFt2NXL9XRRq9aAyVv-9">
          <mxGeometry relative="1" as="geometry" />
        </mxCell>
        <mxCell id="1RKFt2NXL9XRRq9aAyVv-5" value="YES=&amp;gt;EVEN" style="whiteSpace=wrap;html=1;" vertex="1" parent="WIyWlLk6GJQsqaUBKTNV-1">
          <mxGeometry x="270" y="460" width="120" height="60" as="geometry" />
        </mxCell>
        <mxCell id="1RKFt2NXL9XRRq9aAyVv-8" style="edgeStyle=orthogonalEdgeStyle;rounded=0;orthogonalLoop=1;jettySize=auto;html=1;entryX=0.5;entryY=1;entryDx=0;entryDy=0;" edge="1" parent="WIyWlLk6GJQsqaUBKTNV-1" source="1RKFt2NXL9XRRq9aAyVv-7" target="1RKFt2NXL9XRRq9aAyVv-3">
          <mxGeometry relative="1" as="geometry" />
        </mxCell>
        <mxCell id="1RKFt2NXL9XRRq9aAyVv-11" style="edgeStyle=orthogonalEdgeStyle;rounded=0;orthogonalLoop=1;jettySize=auto;html=1;entryX=0.5;entryY=0;entryDx=0;entryDy=0;" edge="1" parent="WIyWlLk6GJQsqaUBKTNV-1" source="1RKFt2NXL9XRRq9aAyVv-7" target="1RKFt2NXL9XRRq9aAyVv-9">
          <mxGeometry relative="1" as="geometry" />
        </mxCell>
        <mxCell id="1RKFt2NXL9XRRq9aAyVv-7" value="NO=&amp;gt;ODD" style="rounded=0;whiteSpace=wrap;html=1;" vertex="1" parent="WIyWlLk6GJQsqaUBKTNV-1">
          <mxGeometry x="410" y="460" width="120" height="60" as="geometry" />
        </mxCell>
        <mxCell id="1RKFt2NXL9XRRq9aAyVv-9" value="END" style="ellipse;whiteSpace=wrap;html=1;" vertex="1" parent="WIyWlLk6GJQsqaUBKTNV-1">
          <mxGeometry x="340" y="570" width="120" height="80" as="geometry" />
        </mxCell>
      </root>
    </mxGraphModel>
  </diagram>
</mxfile>
